# xmcd
#
# Track frame offsets:
#	150
#	12138
#	28822
#	40355
#	57702
#	68698
#	80485
#	96581
#	108841
#	118233
#	130779
#	146855
#	161170
#	176871
#	190079
#	203463
#	217082
#	228455
#	243692
#	257699
#
# Disc length: 3502 seconds
#
# Revision: 0
# Processed by: cddbd v1.4PL0 Copyright (c) Steve Scherf et al.
# Submitted via: EasyCDDAExtractor 4.6.9.1
#
DISCID=300dac14
DTITLE=The Byrds - Sweetheart Of The Rodeo
DYEAR=1900
DGENRE=Country
TTITLE0=You Ain't Going Nowhere
TTITLE1=I Am A Pilgrim
TTITLE2=The Christian Life
TTITLE3=You Don't Miss Your Water
TTITLE4=You're Still On My Mind
TTITLE5=Pretty Boy Floyd
TTITLE6=Hickory Wind
TTITLE7=One Hundred Years From Now
TTITLE8=Blue Canadian Rockies
TTITLE9=Life In Prison
TTITLE10=Nothing Was Delivered
TTITLE11=You Got A Reputation
TTITLE12=Lazy Days
TTITLE13=Pretty Polly
TTITLE14=The Christian Life (rehearsal--take)
TTITLE15=Life In Prison (rehearsal--take)
TTITLE16=You're Still On My Mind (rehearsal--take)
TTITLE17=One Hundred Years From Now (rehearsal--take)
TTITLE18=All I Have Are Memories (instrumental)
TTITLE19=commercial
EXTD=
EXTT0=
EXTT1=
EXTT2=
EXTT3=
EXTT4=
EXTT5=
EXTT6=
EXTT7=
EXTT8=
EXTT9=
EXTT10=
EXTT11=
EXTT12=
EXTT13=
EXTT14=
EXTT15=
EXTT16=
EXTT17=
EXTT18=
EXTT19=
PLAYORDER=
